G04 #@! TF.GenerationSoftware,KiCad,Pcbnew,5.1.8-5.1.8*
G04 #@! TF.CreationDate,2021-02-22T03:00:03+01:00*
G04 #@! TF.ProjectId,STM32L0LoraTx_4,53544d33-324c-4304-9c6f-726154785f34,rev?*
G04 #@! TF.SameCoordinates,Original*
G04 #@! TF.FileFunction,Soldermask,Bot*
G04 #@! TF.FilePolarity,Negative*
%FSLAX46Y46*%
G04 Gerber Fmt 4.6, Leading zero omitted, Abs format (unit mm)*
G04 Created by KiCad (PCBNEW 5.1.8-5.1.8) date 2021-02-22 03:00:03*
%MOMM*%
%LPD*%
G01*
G04 APERTURE LIST*
%ADD10O,3.960000X1.980000*%
%ADD11R,3.960000X1.980000*%
%ADD12R,1.850000X1.850000*%
%ADD13C,1.850000*%
%ADD14C,2.000000*%
G04 APERTURE END LIST*
D10*
G04 #@! TO.C,J3*
X93345000Y-85551000D03*
D11*
X93345000Y-90551000D03*
G04 #@! TD*
D12*
G04 #@! TO.C,J4*
X129667000Y-48768000D03*
D13*
X132167000Y-48768000D03*
X134667000Y-48768000D03*
X137167000Y-48768000D03*
X139667000Y-48768000D03*
X142167000Y-48768000D03*
G04 #@! TD*
G04 #@! TO.C,J4*
X142167000Y-73279000D03*
X139667000Y-73279000D03*
X137167000Y-73279000D03*
X134667000Y-73279000D03*
X132167000Y-73279000D03*
D12*
X129667000Y-73279000D03*
G04 #@! TD*
G04 #@! TO.C,J2*
X103759000Y-90678000D03*
D13*
X106259000Y-90678000D03*
X108759000Y-90678000D03*
X111259000Y-90678000D03*
X113759000Y-90678000D03*
X116259000Y-90678000D03*
G04 #@! TD*
G04 #@! TO.C,J6*
X143129000Y-57872000D03*
D12*
X143129000Y-55372000D03*
G04 #@! TD*
D11*
G04 #@! TO.C,J3*
X93345000Y-66040000D03*
D10*
X93345000Y-61040000D03*
G04 #@! TD*
D12*
G04 #@! TO.C,J6*
X143129000Y-79883000D03*
D13*
X143129000Y-82383000D03*
G04 #@! TD*
D12*
G04 #@! TO.C,J1*
X114681000Y-73279000D03*
D13*
X117181000Y-73279000D03*
X119681000Y-73279000D03*
X122181000Y-73279000D03*
G04 #@! TD*
G04 #@! TO.C,J1*
X122181000Y-48768000D03*
X119681000Y-48768000D03*
X117181000Y-48768000D03*
D12*
X114681000Y-48768000D03*
G04 #@! TD*
D14*
G04 #@! TO.C,RESET*
X102339000Y-52451000D03*
X102339000Y-47951000D03*
X108839000Y-52451000D03*
X108839000Y-47951000D03*
G04 #@! TD*
G04 #@! TO.C,RESET*
X108839000Y-72462000D03*
X108839000Y-76962000D03*
X102339000Y-72462000D03*
X102339000Y-76962000D03*
G04 #@! TD*
D11*
G04 #@! TO.C,J5*
X93345000Y-79375000D03*
D10*
X93345000Y-74375000D03*
G04 #@! TD*
G04 #@! TO.C,J5*
X93345000Y-49864000D03*
D11*
X93345000Y-54864000D03*
G04 #@! TD*
D13*
G04 #@! TO.C,J2*
X116259000Y-66167000D03*
X113759000Y-66167000D03*
X111259000Y-66167000D03*
X108759000Y-66167000D03*
X106259000Y-66167000D03*
D12*
X103759000Y-66167000D03*
G04 #@! TD*
D10*
G04 #@! TO.C,J3*
X93345000Y-109935000D03*
D11*
X93345000Y-114935000D03*
G04 #@! TD*
D12*
G04 #@! TO.C,J2*
X103759000Y-115062000D03*
D13*
X106259000Y-115062000D03*
X108759000Y-115062000D03*
X111259000Y-115062000D03*
X113759000Y-115062000D03*
X116259000Y-115062000D03*
G04 #@! TD*
D12*
G04 #@! TO.C,J1*
X114681000Y-97663000D03*
D13*
X117181000Y-97663000D03*
X119681000Y-97663000D03*
X122181000Y-97663000D03*
G04 #@! TD*
D11*
G04 #@! TO.C,J5*
X93345000Y-103759000D03*
D10*
X93345000Y-98759000D03*
G04 #@! TD*
D12*
G04 #@! TO.C,J6*
X143129000Y-104267000D03*
D13*
X143129000Y-106767000D03*
G04 #@! TD*
G04 #@! TO.C,J4*
X142167000Y-97663000D03*
X139667000Y-97663000D03*
X137167000Y-97663000D03*
X134667000Y-97663000D03*
X132167000Y-97663000D03*
D12*
X129667000Y-97663000D03*
G04 #@! TD*
D14*
G04 #@! TO.C,RESET*
X108839000Y-96846000D03*
X108839000Y-101346000D03*
X102339000Y-96846000D03*
X102339000Y-101346000D03*
G04 #@! TD*
D10*
G04 #@! TO.C,J5*
X93345000Y-123270000D03*
D11*
X93345000Y-128270000D03*
G04 #@! TD*
D13*
G04 #@! TO.C,J1*
X122181000Y-122174000D03*
X119681000Y-122174000D03*
X117181000Y-122174000D03*
D12*
X114681000Y-122174000D03*
G04 #@! TD*
D13*
G04 #@! TO.C,J2*
X116259000Y-139573000D03*
X113759000Y-139573000D03*
X111259000Y-139573000D03*
X108759000Y-139573000D03*
X106259000Y-139573000D03*
D12*
X103759000Y-139573000D03*
G04 #@! TD*
D11*
G04 #@! TO.C,J3*
X93345000Y-139446000D03*
D10*
X93345000Y-134446000D03*
G04 #@! TD*
D12*
G04 #@! TO.C,J4*
X129667000Y-122174000D03*
D13*
X132167000Y-122174000D03*
X134667000Y-122174000D03*
X137167000Y-122174000D03*
X139667000Y-122174000D03*
X142167000Y-122174000D03*
G04 #@! TD*
G04 #@! TO.C,J6*
X143129000Y-131278000D03*
D12*
X143129000Y-128778000D03*
G04 #@! TD*
D14*
G04 #@! TO.C,RESET*
X102339000Y-125857000D03*
X102339000Y-121357000D03*
X108839000Y-125857000D03*
X108839000Y-121357000D03*
G04 #@! TD*
M02*
