M48
INCH,TZ
T1C0.0157
T2C0.0354
T3C0.0433
T4C0.0520
%
G90
G05
T1
X38350Y-23800
X38350Y-33450
X38350Y-43050
X38350Y-52700
X41300Y-23400
X41300Y-33050
X41300Y-42650
X41300Y-52300
X41475Y-22575
X41475Y-32225
X41475Y-41825
X41475Y-51475
X41550Y-21550
X41550Y-24050
X41550Y-31200
X41550Y-33700
X41550Y-40800
X41550Y-43300
X41550Y-50450
X41550Y-52950
X42300Y-26850
X42300Y-36500
X42300Y-46100
X42300Y-55750
X42550Y-22500
X42550Y-32150
X42550Y-41750
X42550Y-51400
X43450Y-19500
X43450Y-29150
X43450Y-38750
X43450Y-48400
X43500Y-21200
X43500Y-30850
X43500Y-40450
X43500Y-50100
X43550Y-22000
X43550Y-31650
X43550Y-41250
X43550Y-50900
X43600Y-22500
X43600Y-32150
X43600Y-41750
X43600Y-51400
X43800Y-24400
X43800Y-34050
X43800Y-43650
X43800Y-53300
X44250Y-20300
X44250Y-29950
X44250Y-39550
X44250Y-49200
X44950Y-21050
X44950Y-30700
X44950Y-40300
X44950Y-49950
X45022Y-21957
X45022Y-31607
X45022Y-41207
X45022Y-50857
X45050Y-22500
X45050Y-32150
X45050Y-41750
X45050Y-51400
X45355Y-23209
X45355Y-32859
X45355Y-42459
X45355Y-52109
X45450Y-21500
X45450Y-31150
X45450Y-40750
X45450Y-50400
X45750Y-22200
X45750Y-22750
X45750Y-31850
X45750Y-32400
X45750Y-41450
X45750Y-42000
X45750Y-51100
X45750Y-51650
X46600Y-25250
X46600Y-34900
X46600Y-44500
X46600Y-54150
X47000Y-23550
X47000Y-33200
X47000Y-42800
X47000Y-52450
X47450Y-22750
X47450Y-32400
X47450Y-42000
X47450Y-51650
X49400Y-20750
X49400Y-21300
X49400Y-22750
X49400Y-30400
X49400Y-30950
X49400Y-32400
X49400Y-40000
X49400Y-40550
X49400Y-42000
X49400Y-49650
X49400Y-50200
X49400Y-51650
X49850Y-24450
X49850Y-34100
X49850Y-43700
X49850Y-53350
X50800Y-20600
X50800Y-30250
X50800Y-39850
X50800Y-49500
X51050Y-26200
X51050Y-35850
X51050Y-45450
X51050Y-55100
X51700Y-21800
X51700Y-31450
X51700Y-41050
X51700Y-50700
X52650Y-21950
X52650Y-31600
X52650Y-41200
X52650Y-50850
X56450Y-18550
X56450Y-28200
X56450Y-37800
X56450Y-47450
X57050Y-22400
X57050Y-32050
X57050Y-41650
X57050Y-51300
T2
X56350Y-50700
X56350Y-51684
X56350Y-31450
X56350Y-32434
X51050Y-38450
X52034Y-38450
X53019Y-38450
X54003Y-38450
X54987Y-38450
X55971Y-38450
X51050Y-19200
X52034Y-19200
X53019Y-19200
X54003Y-19200
X54987Y-19200
X55971Y-19200
X45150Y-19200
X46134Y-19200
X47119Y-19200
X48103Y-19200
X40850Y-45300
X41834Y-45300
X42819Y-45300
X43803Y-45300
X44787Y-45300
X45771Y-45300
X40850Y-54950
X41834Y-54950
X42819Y-54950
X43803Y-54950
X44787Y-54950
X45771Y-54950
X51050Y-28850
X52034Y-28850
X53019Y-28850
X54003Y-28850
X54987Y-28850
X55971Y-28850
X51050Y-48100
X52034Y-48100
X53019Y-48100
X54003Y-48100
X54987Y-48100
X55971Y-48100
X45150Y-48100
X46134Y-48100
X47119Y-48100
X48103Y-48100
X40850Y-26050
X41834Y-26050
X42819Y-26050
X43803Y-26050
X44787Y-26050
X45771Y-26050
X56350Y-21800
X56350Y-22784
X56350Y-41050
X56350Y-42034
X40850Y-35700
X41834Y-35700
X42819Y-35700
X43803Y-35700
X44787Y-35700
X45771Y-35700
X45150Y-28850
X46134Y-28850
X47119Y-28850
X48103Y-28850
X45150Y-38450
X46134Y-38450
X47119Y-38450
X48103Y-38450
T3
X40291Y-47778
X40291Y-49550
X42850Y-47778
X42850Y-49550
X40291Y-38128
X40291Y-39900
X42850Y-38128
X42850Y-39900
X40291Y-28528
X40291Y-30300
X42850Y-28528
X42850Y-30300
X40291Y-18878
X40291Y-20650
X42850Y-18878
X42850Y-20650
T4
X36750Y-48531
X36750Y-50500
X36750Y-38881
X36750Y-40850
X36750Y-43281
X36750Y-45250
X36750Y-19631
X36750Y-21600
X36750Y-52931
X36750Y-54900
X36750Y-33681
X36750Y-35650
X36750Y-24031
X36750Y-26000
X36750Y-29281
X36750Y-31250
T0
M30
