G04 #@! TF.GenerationSoftware,KiCad,Pcbnew,5.1.8-5.1.8*
G04 #@! TF.CreationDate,2021-02-22T03:00:03+01:00*
G04 #@! TF.ProjectId,STM32L0LoraTx_4,53544d33-324c-4304-9c6f-726154785f34,rev?*
G04 #@! TF.SameCoordinates,Original*
G04 #@! TF.FileFunction,Soldermask,Top*
G04 #@! TF.FilePolarity,Negative*
%FSLAX46Y46*%
G04 Gerber Fmt 4.6, Leading zero omitted, Abs format (unit mm)*
G04 Created by KiCad (PCBNEW 5.1.8-5.1.8) date 2021-02-22 03:00:03*
%MOMM*%
%LPD*%
G01*
G04 APERTURE LIST*
%ADD10O,3.960000X1.980000*%
%ADD11R,3.960000X1.980000*%
%ADD12R,1.850000X1.850000*%
%ADD13C,1.850000*%
%ADD14R,1.500000X1.300000*%
%ADD15R,1.500000X1.250000*%
%ADD16R,1.450000X0.450000*%
%ADD17C,2.000000*%
%ADD18R,2.000000X1.000000*%
%ADD19R,1.250000X1.500000*%
%ADD20R,1.050000X2.200000*%
%ADD21R,1.000000X1.000000*%
G04 APERTURE END LIST*
D10*
G04 #@! TO.C,J3*
X93345000Y-85551000D03*
D11*
X93345000Y-90551000D03*
G04 #@! TD*
D12*
G04 #@! TO.C,J4*
X129667000Y-48768000D03*
D13*
X132167000Y-48768000D03*
X134667000Y-48768000D03*
X137167000Y-48768000D03*
X139667000Y-48768000D03*
X142167000Y-48768000D03*
G04 #@! TD*
D14*
G04 #@! TO.C,R4*
X106727000Y-62738000D03*
X109427000Y-62738000D03*
G04 #@! TD*
G04 #@! TO.C,R1*
X106600000Y-56007000D03*
X109300000Y-56007000D03*
G04 #@! TD*
G04 #@! TO.C,R3*
X112442000Y-60325000D03*
X115142000Y-60325000D03*
G04 #@! TD*
G04 #@! TO.C,R2*
X109300000Y-82677000D03*
X106600000Y-82677000D03*
G04 #@! TD*
D13*
G04 #@! TO.C,J4*
X142167000Y-73279000D03*
X139667000Y-73279000D03*
X137167000Y-73279000D03*
X134667000Y-73279000D03*
X132167000Y-73279000D03*
D12*
X129667000Y-73279000D03*
G04 #@! TD*
G04 #@! TO.C,J2*
X103759000Y-90678000D03*
D13*
X106259000Y-90678000D03*
X108759000Y-90678000D03*
X111259000Y-90678000D03*
X113759000Y-90678000D03*
X116259000Y-90678000D03*
G04 #@! TD*
D14*
G04 #@! TO.C,R3*
X115142000Y-84836000D03*
X112442000Y-84836000D03*
G04 #@! TD*
G04 #@! TO.C,R1*
X109300000Y-80518000D03*
X106600000Y-80518000D03*
G04 #@! TD*
G04 #@! TO.C,R6*
X103839000Y-82677000D03*
X101139000Y-82677000D03*
G04 #@! TD*
D13*
G04 #@! TO.C,J6*
X143129000Y-57872000D03*
D12*
X143129000Y-55372000D03*
G04 #@! TD*
D11*
G04 #@! TO.C,J3*
X93345000Y-66040000D03*
D10*
X93345000Y-61040000D03*
G04 #@! TD*
D15*
G04 #@! TO.C,C3*
X144125000Y-86868000D03*
X141625000Y-86868000D03*
G04 #@! TD*
D12*
G04 #@! TO.C,J6*
X143129000Y-79883000D03*
D13*
X143129000Y-82383000D03*
G04 #@! TD*
D12*
G04 #@! TO.C,J1*
X114681000Y-73279000D03*
D13*
X117181000Y-73279000D03*
X119681000Y-73279000D03*
X122181000Y-73279000D03*
G04 #@! TD*
D16*
G04 #@! TO.C,U1*
X112366000Y-76958000D03*
X112366000Y-77608000D03*
X112366000Y-78258000D03*
X112366000Y-78908000D03*
X112366000Y-79558000D03*
X112366000Y-80208000D03*
X112366000Y-80858000D03*
X112366000Y-81508000D03*
X112366000Y-82158000D03*
X112366000Y-82808000D03*
X118266000Y-82808000D03*
X118266000Y-82158000D03*
X118266000Y-81508000D03*
X118266000Y-80858000D03*
X118266000Y-80208000D03*
X118266000Y-79558000D03*
X118266000Y-78908000D03*
X118266000Y-78258000D03*
X118266000Y-77608000D03*
X118266000Y-76958000D03*
G04 #@! TD*
D14*
G04 #@! TO.C,R7*
X101139000Y-80518000D03*
X103839000Y-80518000D03*
G04 #@! TD*
D15*
G04 #@! TO.C,C1*
X101239000Y-62738000D03*
X103739000Y-62738000D03*
G04 #@! TD*
D13*
G04 #@! TO.C,J1*
X122181000Y-48768000D03*
X119681000Y-48768000D03*
X117181000Y-48768000D03*
D12*
X114681000Y-48768000D03*
G04 #@! TD*
D14*
G04 #@! TO.C,R6*
X101139000Y-58166000D03*
X103839000Y-58166000D03*
G04 #@! TD*
G04 #@! TO.C,R2*
X106600000Y-58166000D03*
X109300000Y-58166000D03*
G04 #@! TD*
G04 #@! TO.C,R5*
X109427000Y-60452000D03*
X106727000Y-60452000D03*
G04 #@! TD*
D17*
G04 #@! TO.C,RESET*
X102339000Y-52451000D03*
X102339000Y-47951000D03*
X108839000Y-52451000D03*
X108839000Y-47951000D03*
G04 #@! TD*
D14*
G04 #@! TO.C,R4*
X109427000Y-87249000D03*
X106727000Y-87249000D03*
G04 #@! TD*
D17*
G04 #@! TO.C,RESET*
X108839000Y-72462000D03*
X108839000Y-76962000D03*
X102339000Y-72462000D03*
X102339000Y-76962000D03*
G04 #@! TD*
D14*
G04 #@! TO.C,D1*
X112442000Y-87249000D03*
X115142000Y-87249000D03*
G04 #@! TD*
D16*
G04 #@! TO.C,U1*
X118266000Y-52447000D03*
X118266000Y-53097000D03*
X118266000Y-53747000D03*
X118266000Y-54397000D03*
X118266000Y-55047000D03*
X118266000Y-55697000D03*
X118266000Y-56347000D03*
X118266000Y-56997000D03*
X118266000Y-57647000D03*
X118266000Y-58297000D03*
X112366000Y-58297000D03*
X112366000Y-57647000D03*
X112366000Y-56997000D03*
X112366000Y-56347000D03*
X112366000Y-55697000D03*
X112366000Y-55047000D03*
X112366000Y-54397000D03*
X112366000Y-53747000D03*
X112366000Y-53097000D03*
X112366000Y-52447000D03*
G04 #@! TD*
D18*
G04 #@! TO.C,U2*
X138175000Y-53833000D03*
X138175000Y-55833000D03*
X138175000Y-57833000D03*
X138175000Y-59833000D03*
X138175000Y-61833000D03*
X138175000Y-63833000D03*
X138175000Y-65833000D03*
X138175000Y-67833000D03*
X122175000Y-67833000D03*
X122175000Y-65833000D03*
X122175000Y-63833000D03*
X122175000Y-61833000D03*
X122175000Y-59833000D03*
X122175000Y-57833000D03*
X122175000Y-55833000D03*
X122175000Y-53833000D03*
G04 #@! TD*
D14*
G04 #@! TO.C,R5*
X106727000Y-84963000D03*
X109427000Y-84963000D03*
G04 #@! TD*
D18*
G04 #@! TO.C,U2*
X122175000Y-78344000D03*
X122175000Y-80344000D03*
X122175000Y-82344000D03*
X122175000Y-84344000D03*
X122175000Y-86344000D03*
X122175000Y-88344000D03*
X122175000Y-90344000D03*
X122175000Y-92344000D03*
X138175000Y-92344000D03*
X138175000Y-90344000D03*
X138175000Y-88344000D03*
X138175000Y-86344000D03*
X138175000Y-84344000D03*
X138175000Y-82344000D03*
X138175000Y-80344000D03*
X138175000Y-78344000D03*
G04 #@! TD*
D19*
G04 #@! TO.C,C4*
X118364000Y-87229000D03*
X118364000Y-84729000D03*
G04 #@! TD*
D15*
G04 #@! TO.C,C1*
X103739000Y-87249000D03*
X101239000Y-87249000D03*
G04 #@! TD*
G04 #@! TO.C,C3*
X141625000Y-62357000D03*
X144125000Y-62357000D03*
G04 #@! TD*
D20*
G04 #@! TO.C,AE1*
X141273000Y-90932000D03*
X144223000Y-90932000D03*
D21*
X142748000Y-89432000D03*
X142748000Y-92432000D03*
G04 #@! TD*
D15*
G04 #@! TO.C,C2*
X101239000Y-84963000D03*
X103739000Y-84963000D03*
G04 #@! TD*
D11*
G04 #@! TO.C,J5*
X93345000Y-79375000D03*
D10*
X93345000Y-74375000D03*
G04 #@! TD*
D15*
G04 #@! TO.C,C2*
X103739000Y-60452000D03*
X101239000Y-60452000D03*
G04 #@! TD*
D19*
G04 #@! TO.C,C4*
X118364000Y-60218000D03*
X118364000Y-62718000D03*
G04 #@! TD*
D10*
G04 #@! TO.C,J5*
X93345000Y-49864000D03*
D11*
X93345000Y-54864000D03*
G04 #@! TD*
D21*
G04 #@! TO.C,AE1*
X142748000Y-67921000D03*
X142748000Y-64921000D03*
D20*
X144223000Y-66421000D03*
X141273000Y-66421000D03*
G04 #@! TD*
D14*
G04 #@! TO.C,D1*
X115142000Y-62738000D03*
X112442000Y-62738000D03*
G04 #@! TD*
D13*
G04 #@! TO.C,J2*
X116259000Y-66167000D03*
X113759000Y-66167000D03*
X111259000Y-66167000D03*
X108759000Y-66167000D03*
X106259000Y-66167000D03*
D12*
X103759000Y-66167000D03*
G04 #@! TD*
D14*
G04 #@! TO.C,R7*
X103839000Y-56007000D03*
X101139000Y-56007000D03*
G04 #@! TD*
D10*
G04 #@! TO.C,J3*
X93345000Y-109935000D03*
D11*
X93345000Y-114935000D03*
G04 #@! TD*
D14*
G04 #@! TO.C,R5*
X106727000Y-109347000D03*
X109427000Y-109347000D03*
G04 #@! TD*
G04 #@! TO.C,D1*
X112442000Y-111633000D03*
X115142000Y-111633000D03*
G04 #@! TD*
D12*
G04 #@! TO.C,J2*
X103759000Y-115062000D03*
D13*
X106259000Y-115062000D03*
X108759000Y-115062000D03*
X111259000Y-115062000D03*
X113759000Y-115062000D03*
X116259000Y-115062000D03*
G04 #@! TD*
D12*
G04 #@! TO.C,J1*
X114681000Y-97663000D03*
D13*
X117181000Y-97663000D03*
X119681000Y-97663000D03*
X122181000Y-97663000D03*
G04 #@! TD*
D14*
G04 #@! TO.C,R6*
X103839000Y-107061000D03*
X101139000Y-107061000D03*
G04 #@! TD*
G04 #@! TO.C,R7*
X101139000Y-104902000D03*
X103839000Y-104902000D03*
G04 #@! TD*
G04 #@! TO.C,R4*
X109427000Y-111633000D03*
X106727000Y-111633000D03*
G04 #@! TD*
D18*
G04 #@! TO.C,U2*
X122175000Y-102728000D03*
X122175000Y-104728000D03*
X122175000Y-106728000D03*
X122175000Y-108728000D03*
X122175000Y-110728000D03*
X122175000Y-112728000D03*
X122175000Y-114728000D03*
X122175000Y-116728000D03*
X138175000Y-116728000D03*
X138175000Y-114728000D03*
X138175000Y-112728000D03*
X138175000Y-110728000D03*
X138175000Y-108728000D03*
X138175000Y-106728000D03*
X138175000Y-104728000D03*
X138175000Y-102728000D03*
G04 #@! TD*
D11*
G04 #@! TO.C,J5*
X93345000Y-103759000D03*
D10*
X93345000Y-98759000D03*
G04 #@! TD*
D16*
G04 #@! TO.C,U1*
X112366000Y-101342000D03*
X112366000Y-101992000D03*
X112366000Y-102642000D03*
X112366000Y-103292000D03*
X112366000Y-103942000D03*
X112366000Y-104592000D03*
X112366000Y-105242000D03*
X112366000Y-105892000D03*
X112366000Y-106542000D03*
X112366000Y-107192000D03*
X118266000Y-107192000D03*
X118266000Y-106542000D03*
X118266000Y-105892000D03*
X118266000Y-105242000D03*
X118266000Y-104592000D03*
X118266000Y-103942000D03*
X118266000Y-103292000D03*
X118266000Y-102642000D03*
X118266000Y-101992000D03*
X118266000Y-101342000D03*
G04 #@! TD*
D15*
G04 #@! TO.C,C3*
X144125000Y-111252000D03*
X141625000Y-111252000D03*
G04 #@! TD*
D14*
G04 #@! TO.C,R3*
X115142000Y-109220000D03*
X112442000Y-109220000D03*
G04 #@! TD*
D12*
G04 #@! TO.C,J6*
X143129000Y-104267000D03*
D13*
X143129000Y-106767000D03*
G04 #@! TD*
G04 #@! TO.C,J4*
X142167000Y-97663000D03*
X139667000Y-97663000D03*
X137167000Y-97663000D03*
X134667000Y-97663000D03*
X132167000Y-97663000D03*
D12*
X129667000Y-97663000D03*
G04 #@! TD*
D14*
G04 #@! TO.C,R2*
X109300000Y-107061000D03*
X106600000Y-107061000D03*
G04 #@! TD*
D17*
G04 #@! TO.C,RESET*
X108839000Y-96846000D03*
X108839000Y-101346000D03*
X102339000Y-96846000D03*
X102339000Y-101346000D03*
G04 #@! TD*
D20*
G04 #@! TO.C,AE1*
X141273000Y-115316000D03*
X144223000Y-115316000D03*
D21*
X142748000Y-113816000D03*
X142748000Y-116816000D03*
G04 #@! TD*
D15*
G04 #@! TO.C,C1*
X103739000Y-111633000D03*
X101239000Y-111633000D03*
G04 #@! TD*
G04 #@! TO.C,C2*
X101239000Y-109347000D03*
X103739000Y-109347000D03*
G04 #@! TD*
D14*
G04 #@! TO.C,R1*
X109300000Y-104902000D03*
X106600000Y-104902000D03*
G04 #@! TD*
D19*
G04 #@! TO.C,C4*
X118364000Y-111613000D03*
X118364000Y-109113000D03*
G04 #@! TD*
D10*
G04 #@! TO.C,J5*
X93345000Y-123270000D03*
D11*
X93345000Y-128270000D03*
G04 #@! TD*
D19*
G04 #@! TO.C,C4*
X118364000Y-133624000D03*
X118364000Y-136124000D03*
G04 #@! TD*
D18*
G04 #@! TO.C,U2*
X138175000Y-127239000D03*
X138175000Y-129239000D03*
X138175000Y-131239000D03*
X138175000Y-133239000D03*
X138175000Y-135239000D03*
X138175000Y-137239000D03*
X138175000Y-139239000D03*
X138175000Y-141239000D03*
X122175000Y-141239000D03*
X122175000Y-139239000D03*
X122175000Y-137239000D03*
X122175000Y-135239000D03*
X122175000Y-133239000D03*
X122175000Y-131239000D03*
X122175000Y-129239000D03*
X122175000Y-127239000D03*
G04 #@! TD*
D14*
G04 #@! TO.C,R4*
X106727000Y-136144000D03*
X109427000Y-136144000D03*
G04 #@! TD*
D21*
G04 #@! TO.C,AE1*
X142748000Y-141327000D03*
X142748000Y-138327000D03*
D20*
X144223000Y-139827000D03*
X141273000Y-139827000D03*
G04 #@! TD*
D15*
G04 #@! TO.C,C1*
X101239000Y-136144000D03*
X103739000Y-136144000D03*
G04 #@! TD*
G04 #@! TO.C,C2*
X103739000Y-133858000D03*
X101239000Y-133858000D03*
G04 #@! TD*
G04 #@! TO.C,C3*
X141625000Y-135763000D03*
X144125000Y-135763000D03*
G04 #@! TD*
D14*
G04 #@! TO.C,D1*
X115142000Y-136144000D03*
X112442000Y-136144000D03*
G04 #@! TD*
D13*
G04 #@! TO.C,J1*
X122181000Y-122174000D03*
X119681000Y-122174000D03*
X117181000Y-122174000D03*
D12*
X114681000Y-122174000D03*
G04 #@! TD*
D13*
G04 #@! TO.C,J2*
X116259000Y-139573000D03*
X113759000Y-139573000D03*
X111259000Y-139573000D03*
X108759000Y-139573000D03*
X106259000Y-139573000D03*
D12*
X103759000Y-139573000D03*
G04 #@! TD*
D11*
G04 #@! TO.C,J3*
X93345000Y-139446000D03*
D10*
X93345000Y-134446000D03*
G04 #@! TD*
D12*
G04 #@! TO.C,J4*
X129667000Y-122174000D03*
D13*
X132167000Y-122174000D03*
X134667000Y-122174000D03*
X137167000Y-122174000D03*
X139667000Y-122174000D03*
X142167000Y-122174000D03*
G04 #@! TD*
G04 #@! TO.C,J6*
X143129000Y-131278000D03*
D12*
X143129000Y-128778000D03*
G04 #@! TD*
D14*
G04 #@! TO.C,R1*
X106600000Y-129413000D03*
X109300000Y-129413000D03*
G04 #@! TD*
G04 #@! TO.C,R2*
X106600000Y-131572000D03*
X109300000Y-131572000D03*
G04 #@! TD*
G04 #@! TO.C,R3*
X112442000Y-133731000D03*
X115142000Y-133731000D03*
G04 #@! TD*
G04 #@! TO.C,R5*
X109427000Y-133858000D03*
X106727000Y-133858000D03*
G04 #@! TD*
G04 #@! TO.C,R6*
X101139000Y-131572000D03*
X103839000Y-131572000D03*
G04 #@! TD*
G04 #@! TO.C,R7*
X103839000Y-129413000D03*
X101139000Y-129413000D03*
G04 #@! TD*
D16*
G04 #@! TO.C,U1*
X118266000Y-125853000D03*
X118266000Y-126503000D03*
X118266000Y-127153000D03*
X118266000Y-127803000D03*
X118266000Y-128453000D03*
X118266000Y-129103000D03*
X118266000Y-129753000D03*
X118266000Y-130403000D03*
X118266000Y-131053000D03*
X118266000Y-131703000D03*
X112366000Y-131703000D03*
X112366000Y-131053000D03*
X112366000Y-130403000D03*
X112366000Y-129753000D03*
X112366000Y-129103000D03*
X112366000Y-128453000D03*
X112366000Y-127803000D03*
X112366000Y-127153000D03*
X112366000Y-126503000D03*
X112366000Y-125853000D03*
G04 #@! TD*
D17*
G04 #@! TO.C,RESET*
X102339000Y-125857000D03*
X102339000Y-121357000D03*
X108839000Y-125857000D03*
X108839000Y-121357000D03*
G04 #@! TD*
M02*
